/vscmnt/brussel_pixiu_data/_data_brussel/112/vsc11236/PredSimResults/SUBJ06opt3D/trackIG/worker_11.mot
version=1
nRows=5
nColumns=50
inDegrees=yes
endheader
                time	         pelvis_tilt	         pelvis_list	     pelvis_rotation	           pelvis_tx	           pelvis_ty	           pelvis_tz	       hip_flexion_r	     hip_adduction_r	      hip_rotation_r	        knee_angle_r	       ankle_angle_r	         mtp_angle_r	       hip_flexion_l	     hip_adduction_l	      hip_rotation_l	        knee_angle_l	       ankle_angle_l	         mtp_angle_l	    lumbar_extension	      lumbar_bending	     lumbar_rotation	 ercspn_r/activation	 intobl_r/activation	 extobl_r/activation	    abd_r/activation	    add_r/activation	hamstrings_r/activation	bifemsh_r/activation	glut_max_r/activation	iliopsoas_r/activation	rect_fem_r/activation	  vasti_r/activation	gastroc_r/activation	 soleus_r/activation	tib_ant_r/activation	 ercspn_l/activation	 intobl_l/activation	 extobl_l/activation	    abd_l/activation	    add_l/activation	hamstrings_l/activation	bifemsh_l/activation	glut_max_l/activation	iliopsoas_l/activation	rect_fem_l/activation	  vasti_l/activation	gastroc_l/activation	 soleus_l/activation	tib_ant_l/activation	
          1.01848823	         -8.56571442	         -2.58517526	          8.87348183	          1.62958118	          0.91745700	         -0.00884235	         35.72955068	         -1.45471293	         -9.55396706	         -6.22912350	          2.36851413	          0.29313643	        -11.16206401	         -3.14049037	         -1.37881006	        -12.12482155	          2.77524295	         42.36740416	        -10.21537900	          2.10720782	         -7.96976347	          0.22517289	          0.13400074	          0.00999999	          0.00999999	          0.34088434	          0.16468628	          0.18514894	          0.00999999	          0.16771187	          0.00999999	          0.00999999	          0.01872272	          0.00999999	          0.72323072	          0.19010464	          0.00999999	          0.00999999	          0.02996718	          0.14748817	          0.05372393	          0.40903557	          0.02190086	          0.33275313	          0.02031055	          0.01872272	          0.36476781	          0.30710994	          0.01608778	
          1.02867312	         -8.50875084	         -2.53929717	          8.91442266	          1.64973257	          0.91505357	         -0.00825457	         36.07730937	         -1.35093702	         -9.64951649	         -8.81032717	          1.79988528	          0.28865629	        -12.12050016	         -3.32202260	         -1.76255313	        -12.52689244	          1.12757886	         44.15908263	         -9.86453186	          2.30260528	         -8.40244999	          0.19249692	          0.11455522	          0.00999999	          0.00999999	          0.51897493	          0.14495214	          0.15828104	          0.24990053	          0.14337436	          0.00999999	          0.00999999	          0.01600577	          0.01368309	          0.77308459	          0.24024181	          0.00999999	          0.00999999	          0.02561849	          0.35385228	          0.06103652	          0.39415400	          0.01872272	          0.57585241	          0.01736318	          0.01600577	          0.31183451	          0.26254367	          0.01375320	
          1.03885800	         -8.43574923	         -2.53491661	          8.91957215	          1.67005250	          0.91272109	         -0.00765100	         36.25813064	         -1.30596609	         -9.51656221	        -11.46998946	          1.42268812	          0.22124993	        -12.76085417	         -3.55240544	         -2.16888163	        -13.54895823	         -0.47475458	         45.77539735	         -9.50704799	          2.54926120	         -8.77835630	          0.16829815	          0.09793153	          0.00999999	          0.13627097	          0.48915595	          0.13038787	          0.13531208	          0.25813754	          0.12256858	          0.00999999	          0.00999999	          0.01368309	          0.01169747	          0.86485023	          0.21672225	          0.00999999	          0.00999999	          0.02190086	          0.30250299	          0.05217920	          0.33974560	          0.01600577	          0.71604259	          0.01484352	          0.01368309	          0.26658263	          0.22444463	          0.01175740	
          1.04904288	         -8.35186845	         -2.53783926	          8.88158608	          1.69023718	          0.91063544	         -0.00691182	         36.36706265	         -1.23756873	         -9.39987059	        -14.01876129	          1.07971782	          0.18920636	        -12.97221097	         -3.80774566	         -2.57466882	        -15.34285125	         -2.04894569	         47.11931456	         -9.18666632	          2.79659875	         -9.09586443	          0.19992351	          0.08372019	          0.00999999	          0.21009369	          0.51905646	          0.11394199	          0.11567626	          0.41364117	          0.10478204	          0.00999999	          0.00999999	          0.01169747	          0.00999999	          0.91950542	          0.25195917	          0.00999999	          0.00999999	          0.01872272	          0.25860525	          0.04460721	          0.29044340	          0.01368309	          0.72534456	          0.01268950	          0.01169747	          0.22789748	          0.19187434	          0.01005123	
          1.05922776	         -8.25807705	         -2.55188869	          8.80569374	          1.71007526	          0.90895689	         -0.00604722	         36.51027836	         -1.13645346	         -9.25832358	        -16.62312632	          0.89250154	          0.12670735	        -12.70449473	         -4.10085261	         -2.97708883	        -17.96657469	         -3.54429285	         47.86992469	         -8.92374811	          3.05193142	         -9.35224631	          0.21177473	          0.07157113	          0.00999999	          0.26925618	          0.49243156	          0.09740729	          0.09888990	          0.50549009	          0.08957659	          0.00999999	          0.08670953	          0.00999999	          0.00999999	          0.94687128	          0.31662380	          0.00999999	          0.00999999	          0.01600577	          0.22107774	          0.03813404	          0.24829569	          0.01169747	          0.62008615	          0.01084807	          0.00999999	          0.19482613	          0.16403048	          0.00999999	
